HIERARCHY
ROOT root
{
	OFFSET 0.000000 0.000000 0.000000
	CHANNELS 6 Xposition Yposition Zposition Zrotation Yrotation Xrotation
	JOINT lhip
	{
		OFFSET 0.058581 -0.082280 -0.017664
		CHANNELS 3 Zrotation Yrotation Xrotation
		JOINT lknee
		{
			OFFSET 0.043451 -0.386469 0.008037
			CHANNELS 3 Zrotation Yrotation Xrotation
			JOINT lankle
			{
				OFFSET -0.014790 -0.426874 -0.037428
				CHANNELS 3 Zrotation Yrotation Xrotation
				JOINT ltoe
				{
					OFFSET 0.041054 -0.060286 0.122042
					CHANNELS 3 Zrotation Yrotation Xrotation
					End Site
					{
						OFFSET 0.000000 0.000000 0.000000
					}
				}
			}
		}
	}
	JOINT rhip
	{
		OFFSET -0.060310 -0.090513 -0.013543
		CHANNELS 3 Zrotation Yrotation Xrotation
		JOINT rknee
		{
			OFFSET -0.043257 -0.383688 -0.004843
			CHANNELS 3 Zrotation Yrotation Xrotation
			JOINT rankle
			{
				OFFSET 0.019056 -0.420046 -0.034562
				CHANNELS 3 Zrotation Yrotation Xrotation
				JOINT rtoe
				{
					OFFSET -0.034840 -0.062106 0.130323
					CHANNELS 3 Zrotation Yrotation Xrotation
					End Site
					{
						OFFSET 0.000000 0.000000 0.000000
					}
				}
			}
		}
	}
	JOINT lowerback
	{
		OFFSET 0.004439 0.124404 -0.038385
		CHANNELS 3 Zrotation Yrotation Xrotation
		JOINT upperback
		{
			OFFSET 0.004488 0.137956 0.026820
			CHANNELS 3 Zrotation Yrotation Xrotation
			JOINT chest
			{
				OFFSET -0.002265 0.056032 0.002855
				CHANNELS 3 Zrotation Yrotation Xrotation
				JOINT lowerneck
				{
					OFFSET -0.013390 0.211636 -0.033468
					CHANNELS 3 Zrotation Yrotation Xrotation
					JOINT upperneck
					{
						OFFSET 0.010113 0.088937 0.050410
						CHANNELS 3 Zrotation Yrotation Xrotation
						End Site
						{
							OFFSET 0.000000 0.000000 0.000000
						}
					}
				}
				JOINT lclavicle
				{
					OFFSET 0.071702 0.114000 -0.018898
					CHANNELS 3 Zrotation Yrotation Xrotation
					JOINT lshoulder
					{
						OFFSET 0.122921 0.045205 -0.019046
						CHANNELS 3 Zrotation Yrotation Xrotation
						JOINT lelbow
						{
							OFFSET 0.255332 -0.015649 -0.022946
							CHANNELS 3 Zrotation Yrotation Xrotation
							JOINT lwrist
							{
								OFFSET 0.265709 0.012698 -0.007375
								CHANNELS 3 Zrotation Yrotation Xrotation
								End Site
								{
									OFFSET 0.000000 0.000000 0.000000
								}
							}
						}
					}
				}
				JOINT rclavicle
				{
					OFFSET -0.082954 0.112472 -0.023707
					CHANNELS 3 Zrotation Yrotation Xrotation
					JOINT rshoulder
					{
						OFFSET -0.113228 0.046853 -0.008472
						CHANNELS 3 Zrotation Yrotation Xrotation
						JOINT relbow
						{
							OFFSET -0.260127 -0.014369 -0.031269
							CHANNELS 3 Zrotation Yrotation Xrotation
							JOINT rwrist
							{
								OFFSET -0.269108 0.006794 -0.006027
								CHANNELS 3 Zrotation Yrotation Xrotation
								End Site
								{
									OFFSET 0.000000 0.000000 0.000000
								}
							}
						}
					}
				}
			}
		}
	}
}
MOTION
Frames: 14
Frame Time: 0.033333
-1.124377 0.317093 0.977400 94.437077 -1.265240 89.737607 -3.162214 5.654579 5.185808 -2.375046 -13.602060 11.587678 3.815659 10.696904 -23.017067 0.000000 -0.000000 0.000000 -9.916959 -7.486628 -26.947235 0.627580 -8.730234 15.658682 13.947357 -4.024642 -10.065380 0.000000 -0.000000 0.000000 7.941098 -2.784826 24.475620 11.138586 1.328624 -7.219093 10.133228 -1.589213 0.905257 2.469576 0.955201 -9.732194 -4.317966 -3.789674 -5.675434 -17.869248 8.586280 -0.654040 -60.131382 -9.138678 10.080511 -6.850287 -63.667959 36.004082 -0.990169 -4.946655 -7.122993 25.784926 -6.615611 -1.082313 42.297925 -0.744438 1.239142 -21.290700 26.029520 -14.830439 -13.732175 -1.396361 7.894544 
-1.096271 0.312115 0.975564 94.520994 -1.648228 90.181422 -2.925937 5.975142 5.792455 -2.422692 -13.571403 12.942154 2.832453 9.809484 -23.275100 0.000000 -0.000000 0.000000 -9.066933 -7.992597 -26.658327 0.439006 -9.519458 11.194627 14.104131 -4.481204 -10.110402 0.000000 -0.000000 0.000000 7.707690 -2.528806 23.899979 11.005482 1.053766 -6.766174 10.143420 -1.669766 0.773895 2.352746 0.974255 -9.800668 -4.106981 -3.947418 -5.881144 -17.688623 8.409295 -0.423035 -60.723014 -9.271232 10.322893 -8.013370 -63.445863 37.801331 -2.093311 -5.079339 -6.512120 25.584768 -6.668137 -0.796499 42.880791 -0.753518 1.282044 -21.374589 26.798839 -14.219957 -13.354734 -1.591511 7.651490 
-1.065676 0.306230 0.974542 94.837462 -1.995347 90.099532 -2.623845 5.591261 6.921240 -2.678958 -14.038614 14.752628 1.839235 9.625551 -22.914291 0.000000 -0.000000 0.000000 -8.665819 -7.307918 -25.970550 0.196129 -9.904864 12.145753 13.421060 -5.062933 -10.443042 0.000000 -0.000000 0.000000 7.486376 -2.610275 23.590975 10.988483 0.975001 -6.225319 9.961112 -1.726428 0.670341 2.426500 1.153131 -9.880252 -4.281912 -4.260577 -5.797562 -17.696572 8.257433 -0.377159 -61.161797 -8.929128 10.707105 -9.566265 -62.726552 40.377132 -3.830041 -5.169378 -5.273867 25.496933 -6.673831 -0.752855 43.103167 -1.045884 1.434234 -21.399119 27.614776 -13.325031 -13.009850 -1.498902 7.247225 
-1.033287 0.299497 0.975136 94.927716 -2.091913 89.965524 -2.332739 4.884348 7.516306 -2.845738 -14.252377 17.821815 0.443350 9.668579 -21.848571 0.000000 -0.000000 0.000000 -8.321247 -5.495769 -24.763880 -0.204323 -9.146701 13.858462 12.657900 -4.805481 -9.295346 0.000000 -0.000000 0.000000 7.572311 -2.840758 23.276454 11.027440 1.083821 -5.597115 9.655552 -1.588958 0.494555 2.479310 1.380407 -9.882598 -4.631513 -4.293656 -5.494651 -18.164260 8.139813 -0.499216 -61.410681 -7.857615 11.114845 -10.912534 -61.387732 43.101881 -4.791070 -6.035278 -2.649030 25.545417 -6.615048 -0.886393 42.640329 -1.447570 1.414361 -20.996434 28.430270 -12.058106 -12.954264 -1.123933 6.548170 
-0.999530 0.292334 0.978199 94.740656 -2.022242 90.030010 -2.131194 3.949367 6.901463 -3.144466 -13.553950 22.617308 -0.889901 9.725285 -19.034075 0.000000 -0.000000 0.000000 -8.244871 -4.008956 -23.608203 0.031452 -7.701995 14.597438 11.883040 -5.570091 -5.648339 0.000000 -0.000000 0.000000 7.885652 -2.953514 22.660261 11.168474 1.192315 -4.870072 9.395839 -1.368373 0.206438 2.358060 0.911075 -9.847958 -4.940325 -3.544875 -5.185835 -19.048953 8.361919 -0.584350 -61.813531 -6.453942 11.447567 -11.955868 -59.316053 44.773272 -5.678749 -6.245890 0.334664 25.535347 -6.455798 -0.916634 41.660908 -1.466671 1.451451 -20.583503 28.697706 -11.770047 -13.104275 -0.942302 6.390523 
-0.964072 0.283931 0.983040 94.389858 -1.677225 89.925645 -1.351605 3.502113 5.449439 -3.717809 -12.115471 28.787276 -3.071760 9.136765 -14.121869 0.000000 -0.000000 0.000000 -7.646303 -3.234684 -21.608217 0.467874 -7.316233 14.842421 9.671612 -5.226238 -4.039108 0.000000 -0.000000 0.000000 8.413014 -2.676141 22.152127 11.275820 1.221829 -4.410373 9.241227 -1.217840 -0.102426 2.391881 0.798969 -9.229766 -4.808272 -3.422771 -5.180623 -19.511933 8.390845 -0.508140 -62.560016 -4.669681 11.733878 -12.814615 -56.614478 45.910124 -6.517251 -5.686610 1.579271 25.522803 -6.281799 -0.731364 40.574510 -1.266046 0.652962 -20.087259 28.873981 -11.037893 -13.598366 -1.344040 6.044334 
-0.929743 0.275511 0.988423 93.848161 -1.527817 89.785101 -0.757947 3.135054 2.538555 -4.232489 -10.036015 36.460572 -5.016187 8.337096 -6.079024 0.000000 -0.000000 0.000000 -6.674433 -3.252274 -19.292442 0.608480 -6.952774 14.745377 7.172084 -4.141235 -4.509370 0.000000 -0.000000 0.000000 8.813712 -1.771510 21.769302 11.263417 1.180169 -3.971371 8.998294 -1.069902 -0.405203 2.663927 0.855955 -8.807171 -4.323200 -3.666596 -5.287845 -19.754095 8.083791 -0.545029 -62.860232 -3.043782 12.056646 -14.239104 -53.794247 47.600342 -8.372208 -4.536462 2.131932 25.387706 -6.059785 -0.554764 39.975291 -0.971270 -0.500586 -20.032651 29.158788 -10.677566 -13.896794 -1.895915 5.409200 
-0.897296 0.267818 0.993254 93.644626 -1.690945 89.689014 -0.665738 2.311305 -1.217858 -4.913235 -8.647729 44.269268 -5.463513 7.121464 1.198678 0.000000 -0.000000 0.000000 -5.965526 -4.183852 -17.205232 0.661060 -6.120816 14.836770 5.253344 -3.359172 -5.485992 0.000000 -0.000000 0.000000 8.926204 -0.420512 21.455229 11.195100 0.913951 -3.747531 8.745298 -1.036849 -0.757146 2.961812 0.286034 -8.559997 -3.673785 -3.982540 -5.161876 -19.922955 7.896403 -0.355378 -62.617059 -1.905870 12.089194 -16.311283 -51.416646 50.355810 -11.874666 -3.524905 2.954004 25.103665 -5.722554 -0.405156 39.642918 -0.732005 -1.423784 -20.209178 29.460205 -11.113146 -14.038773 -2.434068 4.825217 
-0.865419 0.261654 0.997563 93.565706 -2.048862 89.081130 -0.830887 0.932010 -4.183746 -4.699379 -6.377776 50.235742 -4.840017 7.150710 2.077336 0.000000 -0.000000 0.000000 -5.813782 -4.492243 -14.652794 0.623481 -5.355286 15.206587 4.580572 -3.221180 -7.077507 0.000000 -0.000000 0.000000 8.833878 0.967057 21.459299 11.030764 0.689003 -3.242860 8.497276 -1.001251 -0.943213 3.423284 -0.335750 -8.601843 -3.416274 -4.361782 -5.075446 -20.028420 7.625796 -0.058548 -62.357476 -1.118958 12.006039 -17.472860 -49.832991 52.555251 -15.920820 -3.331823 3.971276 24.868162 -5.211956 -0.409780 39.044546 -0.413681 -1.776134 -20.387879 29.683914 -11.580384 -14.016780 -2.773995 4.137045 
-0.833776 0.257183 1.001554 93.644827 -2.541829 88.376921 -1.013689 -0.336022 -6.773373 -3.621019 -3.740062 53.482977 -2.752306 8.497651 -2.944270 0.000000 -0.000000 0.000000 -5.964764 -4.132695 -11.864069 0.528253 -4.597856 15.330151 4.596896 -4.023054 -8.722279 0.000000 -0.000000 0.000000 8.613886 1.999775 21.593276 10.776380 0.654352 -3.101947 8.272922 -0.834970 -0.747018 3.759021 -0.981259 -8.693578 -3.477036 -4.748789 -4.966645 -20.061937 7.566633 0.167011 -62.269386 -0.516897 11.892565 -17.986593 -48.581706 53.720793 -18.932229 -3.322208 4.249434 24.498976 -4.912295 -0.499057 38.276133 -0.000877 -1.679918 -20.589118 30.165200 -11.661170 -13.776416 -2.867772 3.843417 
-0.802653 0.253606 1.004521 93.962979 -3.067113 87.981120 -1.080108 -1.222719 -9.490742 -2.750084 -1.696651 53.883594 -1.479547 9.207801 -6.895181 0.000000 -0.000000 0.000000 -6.198877 -4.105874 -9.377062 0.409593 -3.968081 15.415939 4.734751 -4.629026 -10.236584 0.000000 -0.000000 0.000000 8.314200 3.023896 21.348979 10.591329 0.528866 -3.132403 8.131012 -0.640265 -0.626437 3.706458 -1.691437 -8.254922 -3.537963 -5.103196 -4.975379 -20.060014 7.689760 0.421991 -62.317432 0.070135 11.691674 -18.111180 -47.597439 53.682263 -20.078370 -3.058012 3.946780 24.097682 -4.886774 -0.491247 37.359588 0.279862 -1.706337 -20.946015 31.398563 -11.625982 -13.668420 -2.777631 4.174668 
-0.772454 0.250989 1.006369 94.321864 -3.546950 87.704259 -1.035235 -1.744133 -11.985484 -2.358331 0.080355 51.659388 -0.768450 9.459865 -10.210801 0.000000 -0.000000 0.000000 -6.618465 -4.583000 -7.012084 0.492269 -3.424287 15.449055 5.196224 -4.658950 -11.632101 0.000000 -0.000000 0.000000 8.094029 4.021887 21.239720 10.335589 0.346250 -3.463586 8.045421 -0.483644 -0.473078 3.646294 -2.061888 -7.824518 -3.583100 -5.159370 -4.913750 -20.082564 7.959299 0.504079 -62.430407 0.819864 11.305666 -17.907011 -47.046423 52.816595 -19.291927 -2.895880 3.574180 23.678722 -5.036709 -0.747726 36.487292 0.602772 -1.927147 -21.488500 33.165572 -11.920555 -14.074758 -2.600539 4.774396 
-0.743491 0.249548 1.007088 94.437721 -3.885906 87.529840 -0.992941 -1.764121 -14.066810 -1.821399 1.962094 46.961291 -0.401078 9.610168 -13.281827 0.000000 -0.000000 0.000000 -7.084970 -5.256963 -4.895833 0.681722 -2.870167 15.539893 5.922787 -4.238127 -12.864059 0.000000 -0.000000 0.000000 8.019977 4.903387 21.309407 10.015381 0.290202 -3.817090 8.008723 -0.237794 -0.228953 3.679460 -2.175644 -7.822410 -3.650714 -5.147088 -4.885442 -20.108675 8.329428 0.183087 -62.697043 1.560025 10.900262 -17.367601 -46.509678 51.435941 -17.360223 -3.159623 3.559711 23.226272 -5.234278 -1.285767 35.681645 1.098140 -2.259275 -22.302268 35.121821 -12.873412 -14.697665 -2.030505 5.171374 
-0.715247 0.249294 1.006649 94.297623 -4.089281 87.548802 -1.134734 -1.218870 -15.665082 -1.226569 3.702173 40.111110 -0.142376 10.028071 -15.156512 0.000000 -0.000000 0.000000 -7.484596 -5.905989 -3.146687 0.826300 -2.255780 15.759590 6.539031 -3.662577 -13.969539 0.000000 -0.000000 0.000000 7.996818 5.556381 21.312241 9.744518 0.348284 -4.031158 7.986881 0.032758 0.018780 3.788464 -2.073645 -8.134137 -3.789808 -5.330231 -4.686675 -20.137798 8.744570 -0.239023 -63.105111 2.171103 10.475817 -16.539044 -45.715884 50.279978 -14.927420 -3.810927 4.314474 22.777017 -5.317283 -1.671246 34.916812 1.976930 -2.686821 -23.247822 36.879809 -13.946435 -15.593990 -1.225863 5.480570 
